<!DOCTYPE svg PUBLIC "-//W3C//DTD SVG 1.1//EN" "http://www.w3.org/Graphics/SVG/1.1/DTD/svg11.dtd">
<!-- Uploaded to: SVG Repo, www.svgrepo.com, Transformed by: SVG Repo Mixer Tools -->
<svg fill="#fefefe" version="1.1" id="Layer_1" xmlns="http://www.w3.org/2000/svg" xmlns:xlink="http://www.w3.org/1999/xlink" viewBox="0 0 512 512" xml:space="preserve" width="800px" height="800px" stroke="#fefefe">
<g id="SVGRepo_bgCarrier" stroke-width="0"/>
<g id="SVGRepo_tracerCarrier" stroke-linecap="round" stroke-linejoin="round"/>
<g id="SVGRepo_iconCarrier"> <g> <g> <path d="M465.608,478.189l17.25-94.877c0.519-2.816-0.245-5.717-2.085-7.915c-1.422-1.709-3.443-2.639-5.592-3.066 c6.179-36.605,22.748-155.87-2.069-263.41c-1.208-5.193-6.387-8.415-11.585-7.24c-5.198,1.203-8.443,6.387-7.245,11.59 c24.415,105.791,6.674,227.261,1.335,258.656H426.66c-5.069-7.968-15.731-30.447-2.293-64.033 c19.783-49.462,20.01-144.476,20.01-148.495c0-5.335-4.321-9.66-9.66-9.66c-5.33,0-9.66,4.325-9.66,9.66 c0,0.948-0.226,95.316-18.632,141.316c-12.769,31.929-7.734,56.393-1.41,71.212h-12.899c-4.816-9.643-15.361-35.502-15.361-77.283 c0-29.311,10.642-47.665,20.934-65.42c9.104-15.703,17.707-30.538,17.707-50.505c0-38.882-9.359-104.84-9.755-107.632 c-0.755-5.278-5.679-8.991-10.934-8.193c-5.283,0.755-8.953,5.646-8.198,10.929c0.094,0.67,9.566,67.392,9.566,104.896 c0,14.769-7,26.84-15.104,40.816c-11.028,19.028-23.538,40.604-23.538,75.109c0,36.73,7.472,62.462,13.495,77.283h-13.495 c-2.868,0-5.585,1.273-7.415,3.472c-1.84,2.198-2.604,5.099-2.085,7.915l17.25,94.877h-56.052V24.151 c0-5.335-4.321-9.66-9.66-9.66H67.623c-5.339,0-9.66,4.325-9.66,9.66v454.038H0v19.321h67.623h231.849h77.283h77.283H512v-19.321 H465.608z M289.811,478.189H77.283V33.811h212.528V478.189z M445.972,478.189h-61.151l-15.811-86.943h92.773L445.972,478.189z"/> </g> </g> <g> <g> <rect x="222.189" y="246.34" width="38.642" height="19.321"/> </g> </g> </g>
</svg>